<?xml version="1.0" encoding="UTF-8"?>
<svg width="24px" height="24px" viewBox="0 0 24 24" version="1.1" xmlns="http://www.w3.org/2000/svg" xmlns:xlink="http://www.w3.org/1999/xlink">
    <g id="图标" stroke="none" stroke-width="1" fill="none" fill-rule="evenodd">
        <g transform="translate(-598.000000, -71.000000)" fill="#FA6B41" fill-rule="nonzero" id="navigation-menu备份-13">
            <g transform="translate(598.000000, 71.000000)">
                <g id="编组" transform="translate(2.000000, 3.000000)">
                    <path d="M16.5284491,12.1769587 L18.0553704,13.6989057 L12.7735185,18.5357679 L10.5777546,18.9444639 L11.1312963,17.0137982 L16.5284491,12.1769587 Z M14.2902083,1.95399252e-13 C15.635475,1.95399252e-13 16.742875,1.02732979 16.8293146,2.31935427 L16.8347454,2.48218078 L16.8347454,9.48412976 L8.46118056,17.5445545 L2.54229167,17.5445545 C1.19693611,17.5445545 0.0916872222,16.5193133 0.00541988,15.2294609 L2.43404213e-13,15.0669062 L2.43404213e-13,1.95399252e-13 L14.2902083,1.95399252e-13 Z M8.73099537,11.7482517 L7.07775463,11.7482517 L7.07775463,13.3667815 L8.73099537,13.366814 L8.73099537,11.7482517 Z M18.0346065,10.8040857 L19.5615046,12.3260101 L18.5351389,13.2766576 L17.0082176,11.7547332 L18.0346065,10.8040857 Z M7.904375,2.38881119 C5.58027649,2.38881119 4.28018758,3.67841055 4.1987293,5.80520809 L4.19465278,6.02066175 L4.19465278,6.26541699 L5.84120259,6.26541699 L5.84780155,6.02729993 L5.85781804,5.85330083 C5.95837641,4.71617312 6.73020443,4.03944063 7.9113365,4.00722832 C8.88440636,4.03787848 9.33669216,4.50996114 9.37287455,5.48090299 C9.37270833,5.93188487 9.00574351,6.5125979 8.24893648,7.19818195 C7.43061615,7.90533533 7.11959758,8.48458933 7.08176542,9.24257482 L7.07775463,9.40784771 L7.07775463,10.7816272 L8.73097222,10.7816272 L8.73097222,9.40784771 L8.73795849,9.30137194 C8.78008485,8.97501128 9.01459766,8.58695594 9.49221852,8.15625989 C10.5022902,7.2809586 11.0190509,6.38655785 11.0190509,5.47197941 C11.0190509,3.61120104 9.83516907,2.38881119 7.904375,2.38881119 Z" id="形状结合"></path>
                </g>
            </g>
        </g>
    </g>
</svg>