<?xml version="1.0" encoding="UTF-8"?>
<svg width="24px" height="24px" viewBox="0 0 24 24" version="1.1" xmlns="http://www.w3.org/2000/svg" xmlns:xlink="http://www.w3.org/1999/xlink">
    <g id="图标" stroke="none" stroke-width="1" fill="none" fill-rule="evenodd">
        <g transform="translate(-491.000000, -126.000000)" fill="#7C7C7C" fill-rule="nonzero" id="navigation-menu备份-10">
            <g transform="translate(491.000000, 126.000000)">
                <path d="M16.3765032,15.8585 C15.4170032,16.85 13.0180032,19.1835 12.1785032,20 C11.2785032,19.2415 8.58000319,16.9085 7.62050319,15.8585 C6.6000032,14.75 6.00100319,13.4085 6.00100319,11.95 C5.94100319,8.7415 8.58000319,6.0585 11.8785032,6 L11.9985032,6 C13.5580032,6 15.0570032,6.5835 16.1965032,7.6335 C17.3365032,8.7415 17.9960032,10.2 17.9960032,11.7165 C18.0560032,13.2915 17.4560032,14.75 16.3765032,15.8585 L16.3765032,15.8585 Z M12.0000032,14 C13.1430032,14 14.0000032,13.0855 14.0000032,12 C14.0000032,10.9145 13.0855032,10 12.0000032,10 C10.9145032,10 10.0000032,10.857 10.0000032,12 C10.0000032,13.0855 10.8570032,14 12.0000032,14 L12.0000032,14 Z" id="形状"></path>
            </g>
        </g>
    </g>
</svg>