<?xml version="1.0" encoding="UTF-8"?>
<svg width="24px" height="24px" viewBox="0 0 24 24" version="1.1" xmlns="http://www.w3.org/2000/svg" xmlns:xlink="http://www.w3.org/1999/xlink">
    <g id="图标" stroke="none" stroke-width="1" fill="none" fill-rule="evenodd" opacity="0.65">
        <g transform="translate(-78.000000, -237.000000)" fill="#FFFFFF" fill-rule="nonzero" id="编组">
            <g transform="translate(78.000000, 237.000000)">
                <path d="M17.2087,19.9848 L6.6663,19.9848 C5.7575,19.9848 5.0143,19.2904 5.0143,18.428 L5.0143,11.816 C5.0143,10.9536 5.7479,10.26 6.6663,10.26 L7.0735,10.26 L7.0735,8.7168 C7.0735,6.0424 9.2535,4.0144 11.9375,4.0144 C14.6191,4.0144 16.8007,6.0424 16.8007,8.7168 L16.8007,10.2656 L17.2087,10.2656 C18.1183,10.2656 18.8607,10.9616 18.8607,11.824 L18.8607,18.436 C18.8607,19.2904 18.1183,19.9848 17.2087,19.9848 Z M11.2415,15.0744 L11.2415,16.8072 C11.2415,17.1648 11.5543,17.4624 11.9375,17.4624 C12.3199,17.4624 12.6303,17.1648 12.6303,16.8072 L12.6303,15.0744 C13.0471,14.8512 13.3263,14.4272 13.3263,13.9408 C13.3263,13.2144 12.7031,12.6224 11.9375,12.6224 C11.1727,12.6224 10.5479,13.2144 10.5479,13.9408 C10.5479,14.4272 10.8271,14.8504 11.2415,15.0744 Z M15.4119,8.6696 C15.4119,6.856 13.8535,5.3792 11.9375,5.3792 C10.0207,5.3792 8.4631,6.8568 8.4631,8.6696 L8.4631,10.2592 L15.4119,10.2592 L15.4119,8.6696 L15.4119,8.6696 Z" id="形状"></path>
            </g>
        </g>
    </g>
</svg>