<?xml version="1.0" encoding="UTF-8"?>
<svg width="24px" height="24px" viewBox="0 0 24 24" version="1.1" xmlns="http://www.w3.org/2000/svg" xmlns:xlink="http://www.w3.org/1999/xlink">
    <g id="图标" stroke="none" stroke-width="1" fill="none" fill-rule="evenodd">
        <g transform="translate(-547.000000, -175.000000)" fill="#7C7C7C" fill-rule="nonzero" id="navigation-menu备份-15">
            <g transform="translate(547.000000, 175.000000)">
                <path d="M11.471,18.802 C9.589,18.802 8.706,18.8039531 6.824,18.801 C5.193,18.799 4.536,18.136 4.536,16.5 C4.535,13.453 4.534,10.407 4.536,7.36 C4.537,5.919 5.231,5.207 6.679,5.204 C10.539,5.195 13.4,5.194 17.26,5.205 C18.746,5.209 19.463,5.945 19.464,7.419 C19.466,10.482 19.466,13.544 19.464,16.607 C19.463,18.105 18.774,18.796 17.261,18.801 C15.331,18.807 13.401,18.802 11.471,18.802 Z M17.335,17.997 C18.304,17.995 18.651,17.642 18.652,16.665 L18.652,7.337 C18.652,6.36 18.304,6.004 17.337,6.004 C13.447,6.002 10.556,6.002 6.666,6.004 C5.697,6.005 5.35,6.359 5.349,7.336 L5.349,16.664 C5.349,17.642 5.696,17.996 6.664,17.997 C8.593,18 9.523,17.998 11.452,17.998 C13.413,17.998 15.374,18 17.335,17.997 L17.335,17.997 Z M16.025,8.502 L11.125,8.502 C10.914,8.502 10.745,8.671 10.745,8.882 C10.745,9.093 10.914,9.262 11.125,9.262 L16.025,9.262 C16.236,9.262 16.405,9.093 16.405,8.882 C16.4028344,8.67303539 16.2339646,8.50416561 16.025,8.502 L16.025,8.502 Z M11.125,11.686 C10.914,11.686 10.745,11.855 10.745,12.066 C10.745,12.277 10.914,12.446 11.125,12.446 L16.025,12.446 C16.236,12.446 16.405,12.277 16.405,12.066 C16.4028344,11.8570354 16.2339646,11.6881656 16.025,11.686 L11.125,11.686 L11.125,11.686 Z M7.595,9.465 L8.828,9.465 L8.828,8.232 L7.595,8.232 L7.595,9.465 Z M7.595,12.683 L8.828,12.683 L8.828,11.45 L7.595,11.45 L7.595,12.683 Z M11.125,14.7709987 C11.0241363,14.7707335 10.9273269,14.8106835 10.8560052,14.8820052 C10.7846835,14.9533269 10.7447335,15.0501363 10.7449987,15.151 C10.7449987,15.362 10.914,15.531 11.125,15.531 L16.025,15.531 C16.236,15.531 16.405,15.362 16.405,15.151 C16.4028344,14.9420354 16.2339646,14.7731656 16.025,14.7709987 L11.125,14.7709987 L11.125,14.7709987 Z M7.595,15.768 L8.828,15.768 L8.828,14.535 L7.595,14.535 L7.595,15.768 Z" id="Shape"></path>
            </g>
        </g>
    </g>
</svg>