<?xml version="1.0" encoding="UTF-8"?>
<svg width="24px" height="24px" viewBox="0 0 24 24" version="1.1" xmlns="http://www.w3.org/2000/svg" xmlns:xlink="http://www.w3.org/1999/xlink">
    <!-- <defs>
        <linearGradient x1="50%" y1="0%" x2="50%" y2="100%" id="linearGradient-1">
            <stop stop-color="#F33D00" offset="0%"></stop>
            <stop stop-color="#BA2F00" offset="100%"></stop>
        </linearGradient>
    </defs> -->
    <g id="图标" stroke="none" stroke-width="1" fill="none" fill-rule="evenodd">
        <g transform="translate(-563.000000, -71.000000)" fill="url(#linearGradient-1)" fill-rule="nonzero" id="navigation-menu备份-6">
            <g transform="translate(563.000000, 71.000000)">
                <g id="编组" transform="translate(2.000000, 2.000000)">
                    <path d="M18.5293408,13.0257472 C18.7770801,13.2079025 19.046674,13.4544321 19.2482847,13.8855363 C19.451085,14.2486373 19.496024,14.7684099 19.3381426,15.2214091 C19.1802814,15.6974322 18.8888128,16.0811982 18.5524253,16.3993601 C18.2072157,16.7151573 17.8308417,16.9950973 17.4290905,17.2348753 C15.8115071,18.207627 15.0925632,18.7504639 13.4312706,19.1135648 C12.7123267,19.2495916 12.7524069,19.3625339 12.1464054,19.4305372 L12.1464054,17.0017327 C12.6625289,17.0089907 12.5325907,17.0089907 13.1385923,16.9628621 C14.6893821,16.8729841 15.3403025,16.6458897 16.8449638,16.0811982 C17.5857623,15.7861006 18.2828314,15.4011249 18.5742799,14.8813522 C18.7218931,14.6370961 18.7627254,14.342939 18.6872222,14.0677118 C18.5947241,13.7932952 18.4495134,13.5395891 18.259747,13.3208448 C17.9479308,12.975568 17.5932909,12.671532 17.2044357,12.4161166 C16.9129671,12.2339412 16.7551058,12.1440832 16.7551058,12.1440832 C16.7551058,12.1440832 16.9348217,12.1890223 17.2493546,12.3262385 C17.5651173,12.4610355 18.0350921,12.6407715 18.5293408,13.0257472 L18.5293408,13.0257472 Z M6.14237712,16.8389925 C6.58563849,16.8608471 7.00704524,16.8827017 7.40415792,16.8827017 L7.40415792,15.6585818 L10.2895906,18.1517607 L7.40657724,20.6449395 L7.40657724,19.2204387 C6.88550336,19.1493864 6.36705184,19.0602746 5.85215847,18.9532641 C4.21026079,18.5950019 3.58121512,18.0631124 1.98304679,17.1061469 C1.58971919,16.8752469 1.22491227,16.5988893 0.896143145,16.2827686 C0.563384617,15.9488206 0.252500867,15.5711432 0.0970589919,15.1254625 C-0.0498280727,14.6954895 -0.0259163172,14.2255184 0.163852621,13.8126742 C0.341149113,13.4580812 0.607113992,13.2127613 0.85241379,13.0111707 C1.36248895,12.634703 1.80573016,12.4561767 2.11661391,12.3226096 C2.42749766,12.1890223 2.60481431,12.1440832 2.60481431,12.1440832 C2.60481431,12.1440832 2.42751782,12.2327315 2.16155294,12.4112578 C1.87252379,12.6128484 1.47299179,12.8775834 1.11716899,13.3014095 C0.929410947,13.511791 0.793057574,13.7628891 0.718846673,14.0349299 C0.63055718,14.30489 0.671305446,14.6004544 0.829349516,14.8364535 C1.14023327,15.3258434 1.82881458,15.7253956 2.56108494,15.9925701 C4.04752058,16.5487537 4.60979276,16.7491346 6.14116746,16.8377828 L6.14237712,16.8389925 Z M9.71760081,14.572908 C7.11151667,14.577225 4.70153784,13.1893859 3.39724213,10.9331709 C2.09294642,8.67695596 2.09294642,5.89593184 3.39724213,3.63971686 C4.70153784,1.38350187 7.11151667,-0.00433717525 9.71760081,-1.01359828e-05 C13.7416485,0.000211672374 17.0036715,3.26240624 17.0036715,7.28645398 C17.0036715,11.3105017 13.7416485,14.5726963 9.71760081,14.572908 L9.71760081,14.572908 Z M9.71760081,10.929681 C11.7296995,10.929681 13.3608278,9.2985527 13.3608278,7.28645399 C13.3608278,5.27435528 11.7296995,3.643227 9.71760081,3.643227 C7.7055021,3.643227 6.07437381,5.27435528 6.07437381,7.28645399 C6.07437381,9.2985527 7.7055021,10.929681 9.71760081,10.929681 Z M9.71760081,8.50087643 C9.04689381,8.50087643 8.50317837,7.95716099 8.50317837,7.28645399 C8.50317837,6.615747 9.04689381,6.07203155 9.71760081,6.07203155 C10.3883022,6.07203155 10.9320132,6.61574249 10.9320132,7.28644391 C10.9320132,7.95714534 10.3883022,8.50087643 9.71760081,8.50087643 L9.71760081,8.50087643 Z" id="形状"></path>
                </g>
            </g>
        </g>
    </g>
</svg>