<?xml version="1.0" encoding="UTF-8"?>
<svg width="24px" height="24px" viewBox="0 0 24 24" version="1.1" xmlns="http://www.w3.org/2000/svg" xmlns:xlink="http://www.w3.org/1999/xlink">
    <g id="图标" stroke="none" stroke-width="1" fill="none" fill-rule="evenodd">
        <g transform="translate(-118.000000, -22.000000)" fill-rule="nonzero" id="编组">
            <g transform="translate(118.000000, 22.000000)">
                <path d="M17.7192292,2 C19.2035898,2 20.4246794,3.13704923 20.5130943,4.5644575 L20.5182199,4.73039886 L20.5182199,12.4325427 L11.3072986,21.29901 L4.79652083,21.29901 C3.31206216,21.29901 2.09335368,20.1642724 2.00511528,18.7392614 L2,18.5735969 L2,2 L17.7192292,2 Z M11.6040949,14.9230769 L9.78553009,14.9230769 L9.78553009,16.7034597 L11.6040949,16.7034954 L11.6040949,14.9230769 Z M10.6948125,4.62769231 C8.13313948,4.62769231 6.70243277,6.05198894 6.61807558,8.39991882 L6.61411806,8.62272792 L6.61411806,8.89195869 L8.42532285,8.89195869 L8.43258171,8.63002993 L8.44219895,8.45497493 C8.54683986,7.19427693 9.39757599,6.44353875 10.7024702,6.40795115 C11.772847,6.44166633 12.2703614,6.96095725 12.310162,8.02899329 C12.3099792,8.52507335 11.9063179,9.16385769 11.0738301,9.91800014 C10.1736778,10.6958689 9.83155734,11.3330483 9.78994196,12.1668323 L9.78553009,12.3486325 L9.78553009,13.8597899 L11.6040694,13.8597899 L11.6040694,12.3486325 L11.6104148,12.242367 C11.6529092,11.8811311 11.9107505,11.450437 12.4414404,10.9718859 C13.5525193,10.0090545 14.120956,9.02521364 14.120956,8.01917735 C14.120956,5.97232115 12.818686,4.62769231 10.6948125,4.62769231 Z" id="形状" fill="#979797"></path>
                <path d="M20.181294,15.3946546 L21.8609074,17.0687963 L16.0508704,22.3893447 L13.6355301,22.8389103 L14.2444259,20.7151781 L20.181294,15.3946546 Z M21.8380671,13.8844943 L23.5176551,15.5586111 L22.3886528,16.6043234 L20.7090394,14.9302066 L21.8380671,13.8844943 Z" id="形状结合" fill="#3548C4"></path>
            </g>
        </g>
    </g>
</svg>