<?xml version="1.0" encoding="UTF-8"?>
<svg width="24px" height="24px" viewBox="0 0 24 24" version="1.1" xmlns="http://www.w3.org/2000/svg" xmlns:xlink="http://www.w3.org/1999/xlink">
    <g id="图标" stroke="none" stroke-width="1" fill="none" fill-rule="evenodd">
        <g transform="translate(-491.000000, -22.000000)" fill="#FF9502" id="navigation-menu备份">
            <g transform="translate(491.000000, 22.000000)">
                <path d="M8.64993959,13.712412 C8.99993642,13.712412 9.27493393,13.9874095 9.27493393,14.3374063 C9.27493393,14.6749033 8.99993642,14.9624007 8.64993959,14.9624007 L8.64993959,14.9624007 L5.89996451,14.9624007 C5.71246622,14.9624007 5.53746781,15.0498999 5.41246893,15.1998985 C5.29996997,15.3498971 5.24997042,15.5373955 5.28747008,15.7248937 C5.3499695,16.024891 5.62496701,16.2248892 5.92496429,16.2248892 L5.92496429,16.2248892 L17.9623552,16.2248892 C18.0248546,16.2248892 18.099854,16.2373891 18.1623534,16.2623889 C19.0998449,16.4123875 19.7748388,17.23738 19.749839,18.1873714 C19.6873396,19.2123621 18.8373473,20.0123549 17.8123566,19.999855 L17.8123566,19.999855 L7.3374515,19.999855 C7.14995318,19.999855 6.97495478,19.9123558 6.8499559,19.7623572 C6.73745693,19.6123585 6.68745739,19.4248602 6.72495704,19.2373619 C6.78745647,18.9373646 7.06245398,18.7373664 7.36245126,18.7373664 L7.36245126,18.7373664 L17.8248565,18.7373664 C18.0123547,18.7373664 18.1873532,18.6498672 18.312352,18.4998686 C18.424851,18.34987 18.4748506,18.1623717 18.4373509,17.9748734 C18.3748515,17.6748761 18.099854,17.4748779 17.7998567,17.4748779 L17.7998567,17.4748779 L5.87496475,17.4748779 C5.33746962,17.4748779 4.83747415,17.2498799 4.47497743,16.8498835 C4.12498061,16.4498872 3.94998218,15.912392 4.01248162,15.3748969 C4.1374805,14.4124056 4.96247301,13.6999121 5.92496429,13.712412 L5.92496429,13.712412 Z M11.8749104,4 C13.0623996,4 14.1998893,4.48749558 15.0248818,5.33748787 C16.7623661,7.13747156 16.7623661,9.99994562 15.0248818,11.7999293 L15.0248818,11.7999293 L12.3374062,14.5624043 C12.2249072,14.699903 12.0624087,14.7749024 11.8749104,14.7749024 C11.699912,14.7749024 11.5249135,14.6874032 11.4124146,14.5624043 L11.4124146,14.5624043 L8.72493892,11.7999293 C6.98745467,9.99994562 6.98745467,7.13747156 8.72493892,5.33748787 C9.54993143,4.48749558 10.6874211,4 11.8749104,4 Z M11.8874103,5.86248312 L11.8624105,5.86248312 C10.5624223,5.86248312 9.51243178,6.91247361 9.51243178,8.21246183 C9.51243178,9.51245005 10.5624223,10.5624405 11.8624105,10.5624405 L11.8624105,10.5624405 L11.8874103,10.5624405 C12.1499079,10.5624405 12.3999056,10.5249409 12.6499034,10.4374417 C13.7373935,10.0624451 14.3873876,8.96245503 14.1998893,7.82496534 C14.012391,6.68747566 13.0373998,5.86248312 11.8874103,5.86248312 L11.8874103,5.86248312 Z M11.037418,7.3874693 C11.362415,7.04997236 11.8749104,6.93747339 12.3124064,7.12497169 C12.7499025,7.29997009 13.0373998,7.73746612 13.0373998,8.21246183 C13.0373998,8.86245592 12.5249045,9.38745117 11.8749104,9.38745117 C11.3999147,9.39995108 10.9624187,9.11245367 10.7874202,8.67495764 C10.5999219,8.23746159 10.699921,7.72496623 11.037418,7.3874693 Z" id="形状结合"></path>
            </g>
        </g>
    </g>
</svg>