<?xml version="1.0" encoding="UTF-8"?>
<svg width="24px" height="24px" viewBox="0 0 24 24" version="1.1" xmlns="http://www.w3.org/2000/svg" xmlns:xlink="http://www.w3.org/1999/xlink">
    <g id="图标" stroke="none" stroke-width="1" fill="none" fill-rule="evenodd">
        <g transform="translate(-598.000000, -22.000000)" fill="#5AC8FA" id="navigation-menu备份-3">
            <g transform="translate(598.000000, 22.000000)">
                <path d="M12,4 C16.4177778,4 20,7.58222222 20,12 C20,16.4177778 16.4177778,20 12,20 C7.58133333,20 4,16.4177778 4,12 C4,7.58222222 7.58133333,4 12,4 Z M12,5.71466667 C8.52888889,5.71422222 5.71422222,8.52888889 5.71422222,12 C5.71422222,15.4715556 8.52844444,18.2862222 12,18.2862222 C15.4711111,18.2862222 18.2857778,15.4715555 18.2857778,12 C18.2857778,8.52888889 15.4715556,5.71466667 12,5.71466667 Z M12.0579773,9.97579545 C12.4056136,9.97579545 12.6877955,10.2579773 12.6877955,10.6056136 L12.6877955,13.5423409 C12.6877955,13.8899791 12.4059791,14.1717955 12.0583409,14.1717955 C11.7107028,14.1717955 11.4288864,13.8899791 11.4288864,13.5423409 L11.4288864,10.6056136 C11.4288864,10.2579773 11.7103409,9.97579545 12.0579773,9.97579545 Z M9.18088636,11.6543409 C9.52852272,11.6543409 9.81070455,11.9357955 9.81070455,12.2834318 L9.81070455,13.5423409 C9.81070455,13.8899791 9.52888815,14.1717955 9.18125,14.1717955 C8.83361185,14.1717955 8.55179545,13.8899791 8.55179545,13.5423409 L8.55179545,12.2841591 C8.55179545,11.9357955 8.83325,11.6543409 9.18088636,11.6543409 Z M14.9350682,8.29725 C15.2827045,8.29725 15.5648864,8.57943181 15.5648864,8.92706819 L15.5648864,13.5423409 C15.5648864,13.8899791 15.28307,14.1717955 14.9354318,14.1717955 C14.5877937,14.1717955 14.3059773,13.8899791 14.3059773,13.5423409 L14.3059773,8.92706819 C14.3059773,8.57943183 14.5874318,8.29725 14.9350682,8.29725 Z" id="形状结合"></path>
            </g>
        </g>
    </g>
</svg>