<?xml version="1.0" encoding="UTF-8"?>
<svg width="24px" height="24px" viewBox="0 0 24 24" version="1.1" xmlns="http://www.w3.org/2000/svg" xmlns:xlink="http://www.w3.org/1999/xlink">
    <g id="图标" stroke="none" stroke-width="1" fill="none" fill-rule="evenodd">
        <g transform="translate(-547.000000, -22.000000)" fill="#4CD964" id="navigation-menu备份-2">
            <g transform="translate(547.000000, 22.000000)">
                <path d="M12,20 C7.58133333,20 4,16.4177778 4,12 C4,7.58222222 7.58133333,4 12,4 C16.4177778,4 20,7.58222222 20,12 C20,16.4177778 16.4177778,20 12,20 Z M12,5.71422222 C8.52888889,5.71422222 5.71422222,8.52888889 5.71422222,12 C5.71422222,15.4715556 8.52844444,18.2862222 12,18.2862222 C15.4711111,18.2862222 18.2857778,15.4715555 18.2857778,12 C18.2857778,8.52888889 15.4715556,5.71466667 12,5.71466667 L12,5.71422222 Z M12.0128889,13.056 C11.5985526,13.056 11.2626667,12.7201141 11.2626667,12.3057778 L11.2626667,8.74088889 C11.2725775,8.33378652 11.6054437,8.0089253 12.0126667,8.0089253 C12.4198897,8.0089253 12.7527558,8.33378652 12.7626667,8.74088889 L12.7626667,11.5555556 L15.2626667,11.5555556 C15.669769,11.5654664 15.9946303,11.8983326 15.9946303,12.3055556 C15.9946303,12.7127786 15.669769,13.0456447 15.2626667,13.0555556 L12.0133333,13.0555556 L12.0128889,13.056 Z" id="形状"></path>
            </g>
        </g>
    </g>
</svg>