<?xml version="1.0" encoding="UTF-8"?>
<svg width="24px" height="24px" viewBox="0 0 24 24" version="1.1" xmlns="http://www.w3.org/2000/svg" xmlns:xlink="http://www.w3.org/1999/xlink">
    <g id="图标" stroke="none" stroke-width="1" fill="none" fill-rule="evenodd">
        <g transform="translate(-40.000000, -22.000000)" fill-rule="nonzero" id="编组-2">
            <g transform="translate(40.000000, 22.000000)">
                <path d="M4.14285714,2.88571429 L4.14285714,6.02857143 C4.14285714,7.41142857 5.27428571,8.54285714 6.65714286,8.54285714 L14.2,8.54285714 C15.5828571,8.54285714 16.7142857,7.41142857 16.7142857,6.02857143 L16.7142857,2.88571429 L17.3428571,2.88571429 C18.7257143,2.88571429 19.8571429,4.01714286 19.8571429,5.4 L19.8571429,11.9371429 C19.2285714,11.7485714 18.6,11.6857143 17.9714286,11.6857143 C17.4057143,11.6857143 16.84,11.7485714 16.3371429,11.8742857 C16.1485714,11.7485714 15.96,11.6857143 15.7714286,11.6857143 L5.08571429,11.6857143 C4.58285714,11.6857143 4.14285714,12.1257143 4.14285714,12.6285714 C4.14285714,13.1314286 4.58285714,13.5714286 5.08571429,13.5714286 L13.2571429,13.5714286 C12.5028571,14.2628571 11.9371429,15.1428571 11.56,16.0857143 L5.08571429,16.0857143 C4.58285714,16.0857143 4.14285714,16.5257143 4.14285714,17.0285714 C4.14285714,17.5314286 4.58285714,17.9714286 5.08571429,17.9714286 L11.0571429,17.9714286 L11.0571429,18.6 C11.0571429,20.2971429 11.6228571,21.8057143 12.6285714,23 L3.51428571,23 C2.13142857,23 1,21.8685714 1,20.4857143 L1,5.4 C1,4.01714286 2.13142857,2.88571429 3.51428571,2.88571429 L4.14285714,2.88571429 Z M10.4285714,1 C11.4342857,1 12.2514286,1.81714286 12.3771429,2.82285714 L12.3771429,2.82285714 L14.8285714,2.82285714 L14.8285714,5.4 C14.8285714,6.09142857 14.2628571,6.65714286 13.5714286,6.65714286 L13.5714286,6.65714286 L7.28571429,6.65714286 C6.59428571,6.65714286 6.02857143,6.09142857 6.02857143,5.4 L6.02857143,5.4 L6.02857143,2.82285714 L8.48,2.82285714 C8.60571429,1.81714286 9.42285714,1 10.4285714,1 Z" id="形状结合" fill="#979797"></path>
                <path d="M17.9714286,18.6 L17.9714286,16.7142857 C17.9714286,16.3371429 17.72,16.0857143 17.3428571,16.0857143 C16.9657143,16.0857143 16.7142857,16.3371429 16.7142857,16.7142857 L16.7142857,19.2285714 C16.7142857,19.6057143 16.9657143,19.8571429 17.3428571,19.8571429 L19.8571429,19.8571429 C20.2342857,19.8571429 20.4857143,19.6057143 20.4857143,19.2285714 C20.4857143,18.8514286 20.2342857,18.6 19.8571429,18.6 L17.9714286,18.6 Z M17.9714286,23.6285714 C15.2057143,23.6285714 12.9428571,21.3657143 12.9428571,18.6 C12.9428571,15.8342857 15.2057143,13.5714286 17.9714286,13.5714286 C20.7371429,13.5714286 23,15.8342857 23,18.6 C23,21.3657143 20.7371429,23.6285714 17.9714286,23.6285714 Z" id="形状" fill="#3548C4"></path>
            </g>
        </g>
    </g>
</svg>