<?xml version="1.0" encoding="UTF-8"?>
<svg width="24px" height="24px" viewBox="0 0 24 24" version="1.1" xmlns="http://www.w3.org/2000/svg" xmlns:xlink="http://www.w3.org/1999/xlink">
    <g id="图标" stroke="none" stroke-width="1" fill="none" fill-rule="evenodd">
        <g transform="translate(-437.000000, -71.000000)" fill="#FFFFFF" fill-rule="nonzero" id="navigation-menu备份-16">
            <g transform="translate(437.000000, 71.000000)">
                <g id="编组" transform="translate(4.000000, 4.000000)">
                    <path d="M12.2000423,1.19991545 L15.4000423,1.19991545 L15.4000423,4.39991547 C15.4000423,4.73144974 15.6688039,5.00021138 16.0003382,5.00021138 C16.3318725,5.00021138 16.6006341,4.73144974 16.6006341,4.39991547 L16.6006341,1.20059185 C16.6006341,0.428154733 16.1724794,1.33226763e-15 15.4000423,1.33226763e-15 L12.2007187,1.33226763e-15 C11.8693712,1.33226763e-15 11.6007609,0.268610224 11.6007609,0.599957726 C11.6007609,0.931305229 11.8693712,1.19991545 12.2007187,1.19991545 L12.2000423,1.19991545 Z M1.19991545,4.99987317 C1.53134644,4.99987317 1.80054958,4.73134643 1.80054958,4.39991547 L1.80054958,1.20059185 L5.15003171,1.20059185 C5.48156599,1.20059185 5.75032763,0.93183021 5.75032763,0.600295925 C5.75032763,0.26876164 5.48156599,0 5.15003171,0 L1.95070811,0 C1.178271,0 0.599957726,0.428154733 0.599957726,1.19991545 L0.599957726,4.39991547 C0.599957726,4.73134645 0.868484467,4.99987317 1.19991545,4.99987317 Z M16.0006764,11.0001264 C15.8414405,10.9999473 15.6886651,11.0630777 15.5760049,11.1756111 C15.4633447,11.2881444 15.4000422,11.4408486 15.4000423,11.6000845 L15.4000423,14.8000845 L12.2007187,14.8000845 C11.8693712,14.8000845 11.6007609,15.0686948 11.6007609,15.4000423 C11.6007609,15.7313898 11.8693712,16 12.2007187,16 L15.4000423,16 C16.1724794,16 16.6006345,15.5718453 16.6006345,14.8000845 L16.6006345,11.6007609 C16.6008136,11.4415251 16.5376832,11.2887497 16.4251499,11.1760894 C16.3126165,11.0634292 16.1599123,11.0001264 16.0006764,11.0001264 L16.0006764,11.0001264 Z M5.15003171,14.8000845 L1.80054958,14.8000845 L1.80054958,11.6007609 C1.80054958,11.2692266 1.53178794,11.000465 1.20025365,11.000465 C0.868719367,11.000465 0.599957726,11.2692266 0.599957726,11.6007609 L0.599957726,14.8000845 C0.599957726,15.5718453 1.17827097,16 1.95003172,16 L5.15003171,16 C5.48137921,16 5.74998943,15.7313898 5.74998943,15.4000423 C5.74998943,15.0686948 5.48137921,14.8000845 5.15003171,14.8000845 Z M16.6006341,7.59991546 L0.599957726,7.59991546 C0.268610224,7.59991546 0,7.86852568 0,8.19987318 C0,8.53122069 0.268610224,8.79983091 0.599957726,8.79983091 L16.6006341,8.79983091 C16.9319816,8.79983091 17.2005918,8.53122067 17.2005918,8.19987318 C17.2005918,7.86852569 16.9319816,7.59991546 16.6006341,7.59991546 Z" id="形状"></path>
                </g>
            </g>
        </g>
    </g>
</svg>