<?xml version="1.0" encoding="UTF-8"?>
<svg width="24px" height="24px" viewBox="0 0 24 24" version="1.1" xmlns="http://www.w3.org/2000/svg" xmlns:xlink="http://www.w3.org/1999/xlink">
    <g id="图标" stroke="none" stroke-width="1" fill="none" fill-rule="evenodd">
        <g transform="translate(-197.000000, -73.000000)" fill="#3548C4" fill-rule="nonzero" id="编组">
            <g transform="translate(197.000000, 73.000000)">
                <path d="M11.6910415,13.1341786 C10.9460042,13.136603 10.2740098,12.7105196 9.98670783,12.0580033 C9.69940587,11.4006174 9.85766542,10.6336673 10.3787046,10.1442801 C10.916787,9.63784949 11.6983458,9.48932898 12.3849487,9.7595876 C13.0739865,10.0298462 13.5219828,10.6701887 13.5219828,11.3811393 C13.5219828,12.34774 12.7039026,13.1317335 11.6910415,13.1341786 M11.6910415,7.23960857 C9.10045433,7.2444781 7.00412395,9.24585275 7.00412395,11.7147018 C7.00412395,14.0204217 8.98115098,16.445445 11.2625233,19.0555103 C11.3818267,19.1918569 11.5376514,19.2673346 11.6910415,19.2746389 C11.8566053,19.2624651 12.0124301,19.1821179 12.1195596,19.0555103 C14.4033667,16.445445 16.377959,14.0204217 16.377959,11.7147018 C16.377959,9.24341799 14.2816286,7.24204334 11.6910415,7.23960857" id="形状"></path>
                <path d="M21.0892241,23.1142591 L19.3215867,20.932712 C23.5069432,17.0614399 24.0352866,10.5557549 20.3953169,6.0611836 C16.6019571,1.37426608 9.73592731,0.660880708 5.04900979,4.45667521 C0.366961789,8.24760019 -0.35859739,15.1233691 3.43719711,19.8102866 C5.07092265,21.8287046 7.37420783,23.197041 9.92827353,23.6645154 L10.4712255,21.3466216 C8.43089469,20.9984506 6.58777959,19.9198509 5.28518173,18.3129077 C3.31789376,15.9463187 2.77737651,12.70565 3.86815005,9.82776095 C4.95892358,6.94987185 7.51298928,4.88275862 10.5540075,4.41528425 C13.5950256,3.94780988 16.6530871,5.15058248 18.5595061,7.56586673 C21.3716566,11.0402726 20.9942684,16.0437092 17.8242078,19.0822926 L16.090657,16.9397018 L14.072239,23.6839935 L21.0892241,23.1142591 Z" id="路径"></path>
            </g>
        </g>
    </g>
</svg>