<?xml version="1.0" encoding="UTF-8"?>
<svg width="24px" height="24px" viewBox="0 0 24 24" version="1.1" xmlns="http://www.w3.org/2000/svg" xmlns:xlink="http://www.w3.org/1999/xlink">
    <g id="图标" stroke="none" stroke-width="1" fill="none" fill-rule="evenodd">
        <g transform="translate(-547.000000, -126.000000)" fill-rule="nonzero" id="navigation-menu备份-11">
            <g transform="translate(547.000000, 126.000000)">
                <g id="photo" transform="translate(3.000000, 3.000000)">
                    <rect id="矩形" fill="#000000" opacity="0" x="0" y="0" width="18" height="18"></rect>
                    <path d="M8.87911297,7.1011714 C7.57391788,7.1011714 6.51182799,8.16270369 6.51182799,9.46845638 C6.51182799,10.7732377 7.57393588,11.8357414 8.87911297,11.8357414 C10.18438,11.8357414 11.2463979,10.7732377 11.2463979,9.46845638 C11.2463979,8.16270369 10.18438,7.1011714 8.87911297,7.1011714 Z M14.3238954,4.26138279 L11.9566104,4.26138279 L10.5362214,2.82235845 L7.22202247,2.82235845 L5.80163349,4.26138279 L3.43434851,4.26138279 C2.64975646,4.26138279 2.11845069,4.65986661 2.11845069,5.44404495 L2.11845069,13.4928858 C2.11845069,14.2770642 2.64975646,15.1619922 3.43434851,15.1619922 L14.3239134,15.1619922 C15.1086134,15.1619922 15.8611152,14.2770641 15.8611152,13.4928858 L15.8611152,5.44404495 C15.8611152,4.6598846 15.1085954,4.26138279 14.3238954,4.26138279 Z M8.87911297,13.2561663 C6.79062097,13.2561663 5.09142103,11.5564627 5.09142103,9.46847438 C5.09142103,7.37946074 6.79062097,5.68078244 8.87911297,5.68078244 C10.967587,5.68078244 12.6668049,7.37947872 12.6668049,9.46847438 C12.6668049,11.5564627 10.967587,13.2561663 8.87911297,13.2561663 Z" id="形状" fill="#7C7C7C"></path>
                </g>
            </g>
        </g>
    </g>
</svg>