<?xml version="1.0" encoding="UTF-8"?>
<svg width="24px" height="24px" viewBox="0 0 24 24" version="1.1" xmlns="http://www.w3.org/2000/svg" xmlns:xlink="http://www.w3.org/1999/xlink">
    <g id="图标" stroke="none" stroke-width="1" fill="none" fill-rule="evenodd" opacity="0.65">
        <g transform="translate(-34.000000, -237.000000)" fill="#FFFFFF" fill-rule="nonzero" id="编组-3">
            <g transform="translate(34.000000, 237.000000)">
                <g id="编组" transform="translate(5.000000, 3.000000)">
                    <path d="M0,15.0106578 C0,12.2879245 1.5169036,9.80267784 3.84995819,8.73733318 C4.78318003,9.21063387 5.8334727,9.78595341 7.00083623,9.78595343 C8.1665273,9.78595343 9.21681997,9.32937715 10.1500418,8.73733318 C12.4830964,9.80267782 14,12.1691812 14,14.8919145 C13.9983276,17.8504618 0,17.8504618 0,15.0106578 Z M6.99916377,8.39113798 C5.48560507,8.41455215 4.07573767,7.62014289 3.31310477,6.31229436 C2.54879944,5.00444584 2.54879944,3.3871958 3.31310477,2.07934727 C4.07573767,0.7731712 5.48560507,-0.0212380785 6.99916377,0.000503654709 C8.5127225,-0.0229105143 9.9225899,0.771498764 10.6868952,2.07934727 C11.4512006,3.38719579 11.4512006,5.00444584 10.6868952,6.31229436 C9.9225899,7.62014289 8.5127225,8.41455215 6.99916377,8.39113798 L6.99916377,8.39113798 Z" id="形状"></path>
                </g>
            </g>
        </g>
    </g>
</svg>