<?xml version="1.0" encoding="UTF-8"?>
<svg width="24px" height="24px" viewBox="0 0 24 24" version="1.1" xmlns="http://www.w3.org/2000/svg" xmlns:xlink="http://www.w3.org/1999/xlink">
    <g id="图标" stroke="none" stroke-width="1" fill="none" fill-rule="evenodd">
        <g transform="translate(-281.000000, -22.000000)">
            <rect fill="#000848" x="0" y="0" width="959" height="375"></rect>
            <g id="编组" transform="translate(281.000000, 22.000000)" fill-rule="nonzero">
                <path d="M12.1332857,1.02847619 L12.2614286,1.07973333 L18.3766905,4.26479524 C18.4276957,4.29151959 18.4754681,4.32400481 18.5190714,4.36161429 L18.5418524,4.38297143 L18.5632095,4.40432857 C18.5914133,4.43218519 18.6162615,4.46324548 18.6372476,4.49687619 C18.6484936,4.51247756 18.658948,4.52863446 18.6685714,4.54528571 L18.6899286,4.58657619 C18.7341883,4.68014539 18.7579734,4.78208147 18.7596952,4.88557619 L18.7596952,19.575019 C18.7593872,19.7911506 18.6609098,19.9954388 18.492019,20.1303048 L18.3838095,20.2014952 L12.2158667,23.5132762 C12.2116184,23.5156906 12.2073468,23.5180638 12.2030524,23.5203952 L12.1503714,23.5446 C11.9928717,23.6107666 11.8165691,23.616846 11.6548857,23.5616857 L11.555219,23.5189714 L11.570881,23.5275143 L11.5424048,23.5132762 L5.37588571,20.202919 C5.18493003,20.1008769 5.05078902,19.917481 5.01139048,19.7045857 L4.99999457,19.575019 L4.99999457,4.92401905 C4.99943368,4.77959059 5.04316398,4.638461 5.12529524,4.51965714 L5.15519524,4.47836667 C5.16712856,4.46290928 5.17996523,4.44817087 5.1936381,4.43422857 L5.24347143,4.38866667 L5.29188095,4.3488 L5.38585238,4.29184762 L11.6050524,1.07973333 C11.7675417,0.995576499 11.9561974,0.977220813 12.1318619,1.02847619 L12.1332857,1.02847619 Z M17.3330381,6.10435714 L12.6415857,8.70423333 L12.5946,21.6908 L17.3344619,19.1493 L17.3330381,6.10435714 L17.3330381,6.10435714 Z M11.929681,2.51208571 L7.23538095,4.93968095 L11.9268333,7.4740619 L16.5428238,4.9169 L11.929681,2.51493333 L11.929681,2.51208571 Z" id="形状" fill="#979797"></path>
                <polygon id="路径" fill="#979797" points="6.42380952 6.11717143 6.42380952 19.1493 11.1707905 21.697919 11.2177762 8.70850476"></polygon>
                <path d="M16.9215571,16.3714476 C17.1049511,16.6624791 17.0540133,17.0430143 16.8005333,17.2755667 L16.6994429,17.3538762 L13.9870857,19.0624476 C13.6755925,19.2584952 13.2660156,19.1847868 13.0424146,18.8924423 C12.8188136,18.6000978 12.854915,18.1855103 13.125681,17.9362143 L13.2281952,17.8579048 L15.9405524,16.1493333 C16.1002621,16.0484263 16.2935307,16.0151373 16.4777964,16.0567974 C16.6620621,16.0984575 16.8222132,16.21165 16.922981,16.3714476 L16.9215571,16.3714476 Z" id="路径" fill="#3548C4"></path>
                <path d="M16.9329476,12.982781 C17.1077363,13.2787962 17.0460287,13.6574294 16.7862952,13.8826286 L16.6809333,13.9566667 L13.97,15.5598762 C13.6530364,15.7466021 13.2460081,15.6610793 13.0309983,15.3625776 C12.8159884,15.064076 12.8638194,14.6509194 13.1413429,14.4094381 L13.245281,14.3339762 L15.9576381,12.7321905 C16.1201932,12.6360482 16.3142893,12.6084374 16.4972066,12.6554351 C16.6801239,12.7024328 16.8368707,12.8201872 16.9329476,12.982781 L16.9329476,12.982781 Z" id="路径" fill="#3548C4"></path>
                <path d="M16.9329476,9.36060952 C17.1085429,9.65694984 17.0467837,10.036499 16.7862952,10.261881 L16.6809333,10.335919 L13.97,11.9391286 C13.6524968,12.1299273 13.2417326,12.0453653 13.0254109,11.7446706 C12.8090891,11.4439759 12.8595033,11.027639 13.1413429,10.7872667 L13.245281,10.7132286 L15.9576381,9.11001905 C16.1201932,9.01387673 16.3142893,8.98626592 16.4972066,9.03326365 C16.6801239,9.08026138 16.8368707,9.19801574 16.9329476,9.36060952 L16.9329476,9.36060952 Z" id="路径" fill="#3548C4"></path>
            </g>
        </g>
    </g>
</svg>