<?xml version="1.0" encoding="UTF-8"?>
<svg width="24px" height="24px" viewBox="0 0 24 24" version="1.1" xmlns="http://www.w3.org/2000/svg" xmlns:xlink="http://www.w3.org/1999/xlink">
    <g id="图标" stroke="none" stroke-width="1" fill="none" fill-rule="evenodd">
        <g transform="translate(-743.000000, -71.000000)" fill-rule="nonzero" id="navigation-menu备份-9">
            <g transform="translate(743.000000, 71.000000)">
                <g id="6起点备份" transform="translate(4.000000, 4.000000)">
                    <rect id="矩形" fill="#000000" opacity="0" x="0" y="0" width="16" height="16"></rect>
                    <path d="M3.36448598,1.94392523 C5.95638628,-0.598130844 10.0934579,-0.598130844 12.6853582,1.99376947 C15.2772586,4.58566978 15.2274143,8.77258567 12.635514,11.364486 L12.635514,11.364486 L7.95015577,16 L3.31464175,11.3146418 C0.722741437,8.72274144 0.772585672,4.53582555 3.36448598,1.94392523 Z M8.178,8.286 L7.954,8.608 C9.515,8.993 9.515,8.993 11.027,9.672 L11.237,9.357 C10.055,8.817 10.055,8.817 8.65185714,8.41585714 L8.178,8.286 Z M7.583,8.398 C6.755,8.704 6.755,8.704 5.69557143,8.902 L5.336,8.965 L5.392,9.357 C6.3552,9.1834 6.3552,9.1834 7.17952,8.91572 L7.583,8.776 L7.583,8.398 Z M9.025,7.04 L8.822,7.341 C9.788,7.635 9.788,7.635 10.712,8.181 L10.901,7.887 C10.229,7.495 10.229,7.495 9.43156,7.18812 L9.025,7.04 Z M6.568,3.281 C6.106,4.569 6.106,4.569 5.497,5.521 C5.455,5.58166667 5.455,5.58166667 5.39744444,5.62366667 L5.336,5.661 L5.434,6.011 C5.994,5.927 5.994,5.927 6.687,5.787 C6.071,6.928 6.071,6.928 5.637,7.418 L5.5495,7.481 L5.5495,7.481 L5.455,7.53 L5.56,7.88 C6.2432,7.7792 6.2432,7.7792 6.95776,7.544 L7.317,7.418 L7.317,7.068 C6.701,7.306 6.701,7.306 6.008,7.46 C6.60892308,6.71046154 6.60892308,6.71046154 7.50807101,4.92906509 L7.66,4.625 L7.324,4.499 C7.17,4.828 7.17,4.828 6.869,5.43 C6.26,5.57 6.26,5.57 5.798,5.626 C6.28955556,4.93533333 6.28955556,4.93533333 6.7977037,3.7302963 L6.925,3.421 L6.568,3.281 Z M8.885,3.281 C8.605,4.35744444 8.605,4.35744444 7.83828395,5.14628395 L7.639,5.339 L7.877,5.647 C8.213,5.339 8.213,5.339 8.514,4.94 C8.927,5.43 8.927,5.43 9.438,5.871 C8.721375,6.477375 8.721375,6.477375 7.7689375,6.8265 L7.492,6.921 L7.681,7.25 C8.857,6.851 8.857,6.851 9.725,6.109 C10.3841667,6.62816667 10.3841667,6.62816667 11.1891667,7.02580556 L11.517,7.18 L11.72,6.844 C10.761,6.438 10.761,6.438 9.984,5.871 C10.5498333,5.31683333 10.5498333,5.31683333 10.9601111,4.60225 L11.118,4.31 L11.118,4.002 L9.039,4.002 C9.12766667,3.80133333 9.12766667,3.80133333 9.20077778,3.56644444 L9.27,3.323 L8.885,3.281 Z M10.684,4.366 C10.257,5.094 10.257,5.094 9.69,5.64 C9.28575,5.3145 9.28575,5.3145 8.9326875,4.926 L8.703,4.66 L8.871,4.366 L10.684,4.366 Z" id="形状结合" fill="#FF3B30"></path>
                </g>
            </g>
        </g>
    </g>
</svg>