<?xml version="1.0" encoding="UTF-8"?>
<svg width="24px" height="24px" viewBox="0 0 24 24" version="1.1" xmlns="http://www.w3.org/2000/svg" xmlns:xlink="http://www.w3.org/1999/xlink">
    <g id="图标" stroke="none" stroke-width="1" fill="none" fill-rule="evenodd">
        <g transform="translate(-491.000000, -175.000000)" fill="#7C7C7C" fill-rule="nonzero" id="navigation-menu备份-14">
            <g transform="translate(491.000000, 175.000000)">
                <path d="M19,12 C19,15.8705882 15.8705882,19 12,19 C8.12941177,19 5,15.8705882 5,12 C5,8.12941177 8.12941177,5 12,5 C15.8705882,5 19,8.12941177 19,12 Z M6.23529412,12 C6.23529412,15.1705882 8.82941176,17.7647059 12,17.7647059 C15.1705882,17.7647059 17.7647059,15.1705882 17.7647059,12 C17.7647059,8.82941176 15.1705882,6.23529412 12,6.23529412 C8.82941177,6.23529412 6.23529412,8.82941177 6.23529412,12 Z" id="Shape"></path>
                <polygon id="Shape" points="11.3823529 12.5764706 11.3823529 7.88235294 12.6176471 7.88235294 12.6176471 11.3411765 16.0764706 11.3 16.0764706 12.5352941"></polygon>
            </g>
        </g>
    </g>
</svg>