<?xml version="1.0" encoding="UTF-8"?>
<svg width="24px" height="24px" viewBox="0 0 24 24" version="1.1" xmlns="http://www.w3.org/2000/svg" xmlns:xlink="http://www.w3.org/1999/xlink">
    <g id="图标" stroke="none" stroke-width="1" fill="none" fill-rule="evenodd">
        <g transform="translate(-598.000000, -126.000000)" fill="#7C7C7C" fill-rule="nonzero" id="navigation-menu备份-12">
            <g transform="translate(598.000000, 126.000000)">
                <path d="M16.8133185,12.0064947 C16.4925578,12.0171384 16.2092639,12.2185918 16.093903,12.5180791 C15.5367408,14.1278806 14.0204654,15.2076125 12.3169718,15.2076125 C10.6134781,15.2076125 9.09720275,14.1278806 8.54004052,12.5180791 C8.42698282,12.2237419 8.15146408,12.0233646 7.83661205,12.0064947 C7.57943256,11.9961383 7.33300056,12.1102546 7.17454122,12.3130825 C7.01608188,12.5159105 6.96498446,12.7826319 7.03726152,13.0296634 C7.09375346,13.2091894 7.16047513,13.3853346 7.23709916,13.5572347 C7.9755475,15.1561632 9.42371055,16.3141013 11.1459232,16.6826953 C11.3352156,16.7173324 11.4729511,16.8819431 11.473657,17.0743771 L11.473657,18.0016237 C11.4736569,18.2223582 11.2947162,18.4012989 11.0739817,18.4012989 L9.91492342,18.4012989 C9.47345431,18.4012989 9.11557289,18.7591804 9.11557289,19.2006495 C9.11557289,19.6421186 9.47345431,20 9.91492342,20 L14.7110266,20 C15.1524957,20 15.5103771,19.6421186 15.5103771,19.2006495 C15.5103771,18.7591804 15.1524957,18.4012989 14.7110266,18.4012989 L13.5120008,18.4012989 C13.2912662,18.4012989 13.1123255,18.2223582 13.1123255,18.0016237 L13.1123255,17.0743771 C13.1122868,16.884424 13.2459505,16.7206859 13.4320657,16.6826953 C15.1542784,16.3141013 16.6024415,15.1561632 17.3408898,13.5572347 C17.4128314,13.4053582 17.4767794,13.213514 17.5407275,13.0296634 C17.6095752,12.7947369 17.5669759,12.5412154 17.4251274,12.3416923 C17.2832789,12.1421691 17.0578237,12.0186468 16.8133185,12.0064947 L16.8133185,12.0064947 Z" id="路径"></path>
                <path d="M12.312975,13.6051958 C14.0788514,13.6051958 15.5104035,12.1736701 15.5104035,10.4077937 L15.5104035,7.21039156 C15.5140314,6.31009088 15.1379565,5.44996853 14.4745433,4.84133262 C13.8111302,4.23269671 12.9218626,3.93195431 12.0252088,4.01298945 C10.3335428,4.21829735 9.07434698,5.67467489 9.11557289,7.37825517 L9.11557289,10.4077937 C9.11557289,12.1736701 10.5470986,13.6051958 12.312975,13.6051958 Z" id="路径"></path>
            </g>
        </g>
    </g>
</svg>