<?xml version="1.0" encoding="UTF-8"?>
<svg width="24px" height="24px" viewBox="0 0 24 24" version="1.1" xmlns="http://www.w3.org/2000/svg" xmlns:xlink="http://www.w3.org/1999/xlink">
    <g id="图标" stroke="none" stroke-width="1" fill="none" fill-rule="evenodd">
        <g transform="translate(-700.000000, -71.000000)" fill-rule="nonzero" id="navigation-menu备份-8">
            <g transform="translate(700.000000, 71.000000)">
                <g id="6起点" transform="translate(4.000000, 4.000000)">
                    <rect id="矩形" fill="#000000" opacity="0" x="0" y="0" width="16" height="16"></rect>
                    <path d="M12.6853583,1.99376947 C10.0934579,-0.598130844 5.95638628,-0.598130844 3.36448598,1.94392523 C0.772585672,4.53582555 0.722741437,8.72274144 3.31464175,11.3146417 L7.95015577,16 L12.635514,11.364486 C15.2274143,8.77258567 15.2772586,4.58566978 12.6853583,1.99376947 Z M7.8504673,3.788162 L10.6417445,3.788162 L10.6417445,6.28037383 L10.1433022,6.28037383 L10.1433022,6.03115264 L8.49844238,6.03115264 L8.49844238,7.67601247 C8.49844238,7.92523366 8.59813084,8.02492212 8.84735203,8.02492212 L10.0436137,8.02492212 C10.2928349,8.02492212 10.4423676,7.92523366 10.4922118,7.67601247 C10.5420561,7.47663552 10.5420561,7.17757009 10.5919003,6.7788162 C10.741433,6.82866044 10.8909657,6.92834891 11.0903427,6.97819314 C11.0404984,7.42679127 10.9906542,7.72585669 10.9906542,7.92523364 C10.94081,8.32398753 10.6417445,8.47352025 10.1433022,8.47352025 L8.79750778,8.47352025 C8.29906541,8.47352025 8.04984423,8.22429906 8.04984423,7.67601247 L8.04984423,5.48286605 L10.1931464,5.48286605 L10.1931464,4.28660436 L7.95015577,4.28660436 L7.95015577,3.788162 L7.8504673,3.788162 Z M10.9906542,9.86915888 L7.50155763,9.86915888 C6.40498442,9.86915888 5.65732086,9.47040498 5.25856698,8.6728972 C5.10903428,9.27102805 4.95950156,9.76947041 4.71028038,10.1183801 C4.61059191,9.91900311 4.51090342,9.66978194 4.41121495,9.47040498 C4.76012461,8.87227414 4.95950156,7.97507787 4.95950156,6.72897197 L5.45794392,6.7788162 C5.45794392,7.22741433 5.40809969,7.62616823 5.35825545,8.02492212 C5.50778816,8.37383178 5.75700934,8.6728972 6.05607477,8.92211837 L6.05607477,6.38006231 L4.46105919,6.38006231 L4.46105919,5.88161994 L5.85669781,5.88161994 L5.85669781,4.8847352 L4.71028038,4.8847352 L4.71028038,4.38629283 L5.85669781,4.38629283 L5.85669781,3.38940809 L6.40498442,3.38940809 L6.40498442,4.33644859 L7.55140188,4.33644859 L7.55140188,4.83489097 L6.40498442,4.83489097 L6.40498442,5.8317757 L7.70093458,5.8317757 L7.70093458,6.33021806 L6.60436138,6.33021806 L6.60436138,7.37694705 L7.65109034,7.37694705 L7.65109034,7.87538941 L6.60436138,7.87538941 L6.60436138,9.17133956 C6.9034268,9.32087227 7.30218069,9.37071652 7.70093458,9.37071652 C8.79750778,9.37071652 9.99376947,9.37071652 11.2398754,9.32087228 C11.0903427,9.57009347 11.0404984,9.71962617 10.9906542,9.86915887 L10.9906542,9.86915888 Z" id="形状" fill="#4CD964"></path>
                </g>
            </g>
        </g>
    </g>
</svg>