<?xml version="1.0" encoding="UTF-8"?>
<svg width="24px" height="24px" viewBox="0 0 24 24" version="1.1" xmlns="http://www.w3.org/2000/svg" xmlns:xlink="http://www.w3.org/1999/xlink">
    <g id="图标" stroke="none" stroke-width="1" fill="none" fill-rule="evenodd">
        <g transform="translate(-491.000000, -71.000000)" fill="#6ACE00" fill-rule="nonzero" id="navigation-menu备份-5">
            <g transform="translate(491.000000, 71.000000)">
                <g id="编组" transform="translate(2.000000, 2.000000)">
                    <path d="M14.3313875,10.5509375 C14.3201028,11.1089206 14.6420297,11.6200718 15.1501375,11.8509375 C16.1575341,12.4406771 17.2686131,12.8318991 18.4232625,13.0034375 C20.0720125,13.3178125 20.2838875,14.6803125 19.7163875,15.7809375 C19.065852,16.9433913 17.9886507,17.8072144 16.7126375,18.1896875 C14.614949,18.8828272 12.3626638,18.9609035 10.2220125,18.4146875 C9.1782625,18.1928125 8.1613875,17.8434375 7.0282625,17.5228125 L7.0276375,17.5228125 C7.30051186,17.1849649 7.59200565,16.8625899 7.9007625,16.5571875 C8.05137356,16.4634849 8.23458215,16.4378311 8.4051375,16.4865625 C10.3040154,17.0771699 12.2849359,17.3611532 14.2732625,17.3278125 C15.6900011,17.3709386 17.0769096,16.9152717 18.1920125,16.0403125 C18.4642123,15.8080342 18.7027516,15.5389939 18.9007625,15.2409375 C19.0584552,15.0684267 19.1204947,14.829025 19.0664327,14.6016393 C19.0123707,14.3742536 18.8492228,14.1883912 18.6307625,14.1053125 C18.0107625,13.7928125 17.3301375,13.6028125 16.6845125,13.3384375 C15.8635411,13.0319109 15.0596692,12.6814035 14.2763875,12.2884375 C13.6486632,11.9552949 13.318815,11.2455597 13.4688875,10.5509375 L14.3313875,10.5509375 Z M7.82261809,5.41328451 C8.92021614,6.24253598 9.62147944,7.49261755 9.7570125,8.8615625 C9.83304021,9.75753387 9.65406651,10.6567358 9.2407625,11.4553125 C8.25156047,13.3523784 7.01815453,15.1117153 5.5720125,16.6884375 C5.3688875,16.9259375 5.1545125,17.1540625 4.8701375,17.4703125 C4.1326375,16.5803125 3.4176375,15.7590625 2.7501375,14.9009375 C1.77698071,13.688577 0.959571772,12.3590539 0.3170125,10.9434375 C-0.7498625,8.5028125 0.9776375,5.0728125 3.9770125,4.4946875 C5.3308979,4.2510201 6.72502004,4.58403304 7.82261809,5.41328451 Z M3.7270125,5.9928125 C2.80189733,6.33907153 2.05746007,7.04679476 1.66489514,7.95323073 C1.27233021,8.85966669 1.26542321,9.88680413 1.6457625,10.7984375 C2.5048313,12.466294 3.59495304,14.0045839 4.8838875,15.3678125 C6.23381306,13.9778397 7.35160443,12.3799699 8.1945125,10.6353125 C8.47593248,9.96925273 8.52157375,9.22708602 8.3238875,8.5315625 C8.09205717,7.55933186 7.46125924,6.72980495 6.58633402,6.24660356 C5.7114088,5.76340217 4.67336646,5.67126637 3.7270125,5.9928125 Z M5.92488993,7.62051978 C6.57412828,7.99541805 6.96936239,8.69257314 6.9576375,9.4421875 C6.97704792,10.0080146 6.76944875,10.558263 6.38065367,10.9698455 C5.99185859,11.3814279 5.45431297,11.6199975 4.8882625,11.6321875 C3.72772949,11.5948252 2.81079946,10.6350921 2.8263875,9.4740625 C2.80309727,8.7247183 3.18752705,8.02154765 3.83090334,7.6366761 C4.47427963,7.25180455 5.27565157,7.2456215 5.92488993,7.62051978 Z M4.8770125,8.7065625 C4.49048115,8.72281478 4.18042561,9.03314206 4.1645125,9.4203125 C4.13840953,9.84125863 4.45632983,10.204636 4.8770125,10.2346875 C5.29899257,10.2346875 5.641075,9.89260507 5.641075,9.470625 C5.641075,9.04864493 5.29899257,8.7065625 4.8770125,8.7065625 Z M13.9588875,0.0178125 C15.683393,0.151164558 17.1095986,1.41351471 17.4513875,3.1090625 C17.6360821,4.04186192 17.4610313,5.00999955 16.9613875,5.8190625 C16.119445,7.19970393 15.0374179,8.41867773 13.7663875,9.4184375 C12.3738624,8.37608425 11.2223084,7.04589224 10.3901375,5.5184375 C9.83674757,4.31002473 9.93973351,2.90254378 10.6631277,1.78755382 C11.386522,0.67256386 12.6298518,0.00492653756 13.9588875,0.0178125 Z M11.9476375,2.2571875 C11.2796513,2.94111029 11.1103557,3.96961855 11.5238875,4.8315625 C12.058221,5.82382727 12.821398,6.67442034 13.7501375,7.3128125 L13.7501375,7.3121875 C14.6192715,6.66488318 15.3502569,5.850387 15.9001375,4.9165625 C16.1849368,4.43618467 16.2695595,3.8631292 16.1357625,3.3209375 C15.9425703,2.38694891 15.2115181,1.65786322 14.2770125,1.4671875 C13.4124247,1.24064409 12.4960395,1.55143317 11.9476375,2.2571875 Z M13.7538875,2.9634375 C14.3020432,2.97803427 14.7382795,3.42759074 14.7363875,3.9759375 C14.7433318,4.25538279 14.6366748,4.52570238 14.4407909,4.72511999 C14.244907,4.9245376 13.9765373,5.03601006 13.6970125,5.0340625 C13.4258466,5.03089666 13.1674842,4.91821235 12.9806752,4.72163325 C12.7938662,4.52505416 12.6944876,4.26128764 12.7051375,3.9903125 C12.6930239,3.71056331 12.8003946,3.43885177 13.0004681,3.24295143 C13.2005417,3.04705109 13.4744557,2.94543065 13.7538875,2.9634375 Z" id="形状结合"></path>
                </g>
            </g>
        </g>
    </g>
</svg>