<?xml version="1.0" encoding="UTF-8"?>
<svg width="24px" height="24px" viewBox="0 0 24 24" version="1.1" xmlns="http://www.w3.org/2000/svg" xmlns:xlink="http://www.w3.org/1999/xlink">
    <g id="图标" stroke="none" stroke-width="1" fill="none" fill-rule="evenodd">
        <g transform="translate(-649.000000, -71.000000)" fill="#FFFFFF" fill-rule="nonzero" id="navigation-menu备份-7">
            <g transform="translate(649.000000, 71.000000)">
                <g id="编组" transform="translate(1.000000, 2.000000)">
                    <path d="M15.7192292,0 C17.2606806,0 18.5182199,1.22619658 18.5182199,2.73039886 L18.5182199,2.73039886 L18.5182199,10.4325427 L9.30729861,19.29901 L2.79652083,19.29901 C1.25496759,19.29901 -1.73606387e-14,18.0753063 -1.73606387e-14,16.5735969 L-1.73606387e-14,16.5735969 L-1.73606387e-14,0 Z M9.60409491,12.9230769 L7.78553009,12.9230769 L7.78553009,14.7034597 L9.60409491,14.7034954 L9.60409491,12.9230769 Z M8.6948125,2.62769231 C6.0530872,2.62769231 4.61411806,4.1423984 4.61411806,6.62272792 L4.61411806,6.62272792 L4.61411806,6.89195869 L6.42532285,6.89195869 L6.43258171,6.63002993 L6.44219895,6.45497493 C6.54683986,5.19427693 7.39757599,4.44353875 8.70247015,4.40795115 C9.772847,4.44166633 10.2703614,4.96095725 10.310162,6.02899329 C10.3099792,6.52507335 9.90631786,7.16385769 9.07383013,7.91800014 C8.10938117,8.75143091 7.78553009,9.42335609 7.78553009,10.3486325 L7.78553009,10.3486325 L7.78553009,11.8597899 L9.60406944,11.8597899 L9.60406944,10.3486325 L9.61041485,10.242367 C9.65290922,9.88113107 9.91075053,9.45043704 10.4414404,8.97188588 C11.5525193,8.00905446 12.120956,7.02521364 12.120956,6.01917735 C12.120956,3.97232115 10.818686,2.62769231 8.6948125,2.62769231 Z" id="形状结合"></path>
                    <path d="M18.181294,13.3946546 L19.8609074,15.0687963 L14.0508704,20.3893447 L11.6355301,20.8389103 L12.2444259,18.7151781 L18.181294,13.3946546 Z M19.8380671,11.8844943 L21.5176551,13.5586111 L20.3886528,14.6043234 L18.7090394,12.9302066 L19.8380671,11.8844943 Z" id="形状结合"></path>
                </g>
            </g>
        </g>
    </g>
</svg>