<?xml version="1.0" encoding="UTF-8"?>
<svg width="24px" height="24px" viewBox="0 0 24 24" version="1.1" xmlns="http://www.w3.org/2000/svg" xmlns:xlink="http://www.w3.org/1999/xlink">
    <!-- <defs>
        <path d="M18.7260993,1 C19.9792623,1 21,2.0207583 21,3.27390072 L21,21.2121126 C21,21.6415852 20.6499429,21.9916629 20.2204703,21.9916629 C20.1557615,21.9916629 20.0939734,21.9828184 20.0292646,21.9681324 C19.8527653,21.9681324 19.6880314,21.9093062 19.5497692,21.8004571 L17.3347152,20.0560335 L15.1637604,21.7651408 C15.0254982,21.8739899 14.8548816,21.9328161 14.6813237,21.9328161 C14.5077658,21.9328161 14.3371492,21.8739899 14.1989076,21.7651408 L12.0132462,20.0442888 L9.75405202,21.8239876 C9.6158104,21.9328161 9.4451938,21.9916629 9.27163589,21.9916629 C9.09807798,21.9916629 8.92746138,21.9328366 8.7891992,21.8239876 L6.61530304,20.1119389 L4.44731008,21.8239876 C4.3090479,21.9328161 4.1384313,21.9916629 3.96487339,21.9916629 C3.93251897,21.9916629 3.90016455,21.9887215 3.87075144,21.9857802 C3.83839702,21.9887215 3.80896334,21.9916629 3.77955023,21.9916629 C3.3500777,21.9916629 3,21.6415852 3,21.2121126 L3,3.27390072 C3,2.0207583 4.02077886,1 5.27392129,1 L18.7260993,1 Z M15.8187623,15.6098447 L7.64265149,15.6098447 C7.41350292,15.6098447 7.22313583,15.7747373 7.18366103,15.9924478 L7.17615003,16.0763462 L7.17615003,16.5354826 C7.17615003,16.7646465 7.34105615,16.9550152 7.55875763,16.9944782 L7.64265149,17.0019841 L15.8187623,17.0019841 C16.0479261,17.0019841 16.2382813,16.8370915 16.2777533,16.619381 L16.2852637,16.5354826 L16.2852637,16.0763462 C16.2852637,15.8185368 16.0765716,15.6098447 15.8187623,15.6098447 Z M6.04736515,15.6098447 L5.5624426,15.6098447 C5.33329402,15.6098447 5.14292694,15.7747373 5.10345214,15.9924478 L5.09594113,16.0763462 L5.09594113,16.5354826 C5.09594113,16.7646465 5.26084726,16.9550152 5.47854873,16.9944782 L5.5624426,17.0019841 L6.04736515,17.0019841 C6.27652898,17.0019841 6.4668842,16.8370915 6.50635617,16.619381 L6.51386661,16.5354826 L6.51386661,16.0763462 C6.51386661,15.8185368 6.30517446,15.6098447 6.04736515,15.6098447 Z M17.4496438,11.7540631 L16.0145868,11.7540631 L16.0145868,13.15899 L17.4496438,13.1590182 L17.4496438,11.7540631 Z M13.0719093,11.1179785 L7.64265149,11.1179785 C7.41350292,11.1179785 7.22313583,11.2828846 7.18366103,11.5005861 L7.17615003,11.5844799 L7.17615003,12.0436336 C7.17615003,12.2727822 7.34105615,12.4631492 7.55875763,12.502624 L7.64265149,12.510135 L13.0719093,12.510135 C13.3010732,12.510135 13.4914284,12.3452289 13.5309004,12.1275274 L13.5384108,12.0436336 L13.5384108,11.5844799 C13.5384108,11.3266878 13.3297186,11.1179785 13.0719093,11.1179785 Z M6.04736515,11.1179785 L5.5624426,11.1179785 C5.33329402,11.1179785 5.14292694,11.2828846 5.10345214,11.5005861 L5.09594113,11.5844799 L5.09594113,12.0436336 C5.09594113,12.2727822 5.26084726,12.4631492 5.47854873,12.502624 L5.5624426,12.510135 L6.04736515,12.510135 C6.27652898,12.510135 6.4668842,12.3452289 6.50635617,12.1275274 L6.51386661,12.0436336 L6.51386661,11.5844799 C6.51386661,11.3266878 6.30517446,11.1179785 6.04736515,11.1179785 Z M16.7321153,3.62981991 C14.64749,3.62981991 13.5119778,4.82509732 13.5119778,6.78236275 L13.5119778,6.78236275 L13.5119778,6.99481681 L14.9412268,6.99481681 L14.9469549,6.78812487 L14.9570761,6.62153715 C15.0499989,5.64386405 15.7183001,5.06246298 16.7381581,5.03464901 C17.5828086,5.06125416 17.9754047,5.47103446 18.006812,6.3138378 C18.0066677,6.70530206 17.6881324,7.20937641 17.0312038,7.80448159 C16.2701426,8.46215438 16.0145868,8.99238067 16.0145868,9.72253022 L16.0145868,9.72253022 L16.0145868,10.9150073 L17.4496237,10.9150073 L17.4496237,9.72253022 L17.4571187,9.61958976 C17.4973132,9.33849395 17.7009365,9.00535884 18.1104057,8.63611872 C18.9871748,7.87633393 19.4357368,7.0999703 19.4357368,6.3060919 C19.4357368,4.6908868 18.4080959,3.62981991 16.7321153,3.62981991 Z M10.7836092,7.37972392 L7.64265149,7.37972392 C7.41350292,7.37972392 7.22313583,7.54461649 7.18366103,7.762327 L7.17615003,7.84622539 L7.17615003,8.30536186 C7.17615003,8.5345257 7.34105615,8.72488091 7.55875763,8.76435288 L7.64265149,8.77186333 L10.7836092,8.77186333 C11.0127577,8.77186333 11.2031248,8.60697076 11.2425996,8.38926025 L11.2501106,8.30536186 L11.2501106,7.84622539 C11.2501106,7.58841608 11.0414013,7.37972392 10.7836092,7.37972392 Z M5.95654732,7.37972392 L5.5624426,7.37972392 C5.33329402,7.37972392 5.14292694,7.54461649 5.10345214,7.762327 L5.09594113,7.84622539 L5.09594113,8.30536186 C5.09594113,8.5345257 5.26084726,8.72488091 5.47854873,8.76435288 L5.5624426,8.77186333 L5.95654732,8.77186333 C6.1856959,8.77186333 6.37606298,8.60697076 6.41553778,8.38926025 L6.42304879,8.30536186 L6.42304879,7.84622539 C6.42304879,7.58841608 6.21433947,7.37972392 5.95654732,7.37972392 Z" id="path-1"></path>
        <filter x="-2.8%" y="-2.4%" width="105.6%" height="109.5%" filterUnits="objectBoundingBox" id="filter-2">
            <feOffset dx="0" dy="1" in="SourceAlpha" result="shadowOffsetOuter1"></feOffset>
            <feColorMatrix values="0 0 0 0 0   0 0 0 0 0   0 0 0 0 0  0 0 0 0.32 0" type="matrix" in="shadowOffsetOuter1"></feColorMatrix>
        </filter>
    </defs> -->
    <g id="图标" stroke="none" stroke-width="1" fill="none" fill-rule="evenodd">
        <g transform="translate(-649.000000, -126.000000)" fill-rule="nonzero" id="navigation-menu备份-17">
            <g transform="translate(649.000000, 126.000000)" id="形状结合">
                <use fill="black" fill-opacity="1" filter="url(#filter-2)" xlink:href="#path-1"></use>
                <use fill="#FFFFFF" xlink:href="#path-1"></use>
            </g>
        </g>
    </g>
</svg>