<?xml version="1.0" encoding="UTF-8"?>
<svg width="24px" height="24px" viewBox="0 0 24 24" version="1.1" xmlns="http://www.w3.org/2000/svg" xmlns:xlink="http://www.w3.org/1999/xlink">
    <g id="图标" stroke="none" stroke-width="1" fill="none" fill-rule="evenodd">
        <g transform="translate(-649.000000, -22.000000)" fill="#FF3B2F" id="navigation-menu备份-4" stroke="#FF3B2F" stroke-width="0.5">
            <g transform="translate(649.000000, 22.000000)">
                <g id="编组" transform="translate(6.000000, 6.000000)">
                    <path d="M6,2 C4.3488,2 3.6,2.9856 3.6,4.4 L4.4,4.4 C4.4272,3.3968 5.08,2.8256 6,2.8 C6.808,2.8256 7.1648,3.2656 7.192,4.0112 C7.192,4.3968 6.9136,4.8464 6.3568,5.3616 C5.7152,5.928 5.6,6.3376 5.6,6.8 L5.6,7.6 L6.4,7.6 L6.4,6.8 C6.4,6.544 6.5376,6.1968 6.984,5.7856 C7.6528,5.1936 7.9872,4.6032 7.9872,4.0112 C7.9872,2.8288 7.2816,2 6,2 Z M5.6,9.2 L6.4,9.2 L6.4,8.4 L5.6,8.4 L5.6,9.2 Z M12.4,6.6464 L12.4,1.1072 C12.4,1.1072 12.2496,2.13162821e-14 11.2,2.13162821e-14 C10.1504,2.13162821e-14 -6.75015599e-14,2.13162821e-14 -6.75015599e-14,2.13162821e-14 L-6.75015599e-14,11.4464 C-6.75015599e-14,11.4464 0.1504,12.3776 1.6,12.4 C3.0496,12.4224 6,12.4 6,12.4 C5.8256,12.4224 12.4,6.6464 12.4,6.6464 Z M5.6,11.6 C5.6,11.6 1.8992,11.5888 1.6,11.6 C0.6752,11.6352 0.8,10.7072 0.8,10.7072 L0.8,0.7392 C0.8,0.7392 10.6752,0.7392 11.2,0.7392 C11.7248,0.7392 11.6,1.1776 11.6,1.4784 L11.6,6.2784 L5.6,11.6 Z" id="形状"></path>
                    <polygon id="路径" points="8.8688 13.3632 7.7456 13.5728 7.9696 12.5248 11.4736 9.2576 12.3728 10.096"></polygon>
                    <polygon id="路径" points="12.8656 9.6368 11.9664 8.7984 12.5184 8.2848 13.4176 9.1232"></polygon>
                </g>
            </g>
        </g>
    </g>
</svg>